<?xml version="1.0" encoding="utf-8"?>
<!-- Generator: Adobe Illustrator 25.2.3, SVG Export Plug-In . SVG Version: 6.00 Build 0)  -->
<svg version="1.1" id="Ebene_2" xmlns="http://www.w3.org/2000/svg" xmlns:xlink="http://www.w3.org/1999/xlink" x="0px" y="0px"
	 viewBox="0 0 340.16 340.16" style="enable-background:new 0 0 340.16 340.16;" xml:space="preserve">
<style type="text/css">
	.st0{fill:#0D3183;}
</style>
<g>
	<path class="st0" d="M186.97,137.3l45.85-6.75l-44.03-12.67c-3.04-6.17-9.38-10.42-16.72-10.42c-10.3,0-18.65,8.35-18.65,18.65
		s8.35,18.65,18.65,18.65C178.17,144.78,183.57,141.83,186.97,137.3z"/>
	<circle class="st0" cx="191.56" cy="95.1" r="8.37"/>
	<circle class="st0" cx="206.15" cy="100.21" r="1.63"/>
	<path class="st0" d="M203.63,105.25c0.49,0,0.89-0.4,0.89-0.89c0-0.49-0.4-0.89-0.89-0.89c-0.49,0-0.89,0.4-0.89,0.89
		C202.75,104.85,203.14,105.25,203.63,105.25z"/>
	
		<ellipse transform="matrix(0.9732 -0.2298 0.2298 0.9732 -32.6673 45.5829)" class="st0" cx="179.41" cy="163.07" rx="16.07" ry="16.07"/>
	<path class="st0" d="M199.49,170.85c-0.74,0-1.33,0.6-1.33,1.33s0.6,1.33,1.33,1.33s1.33-0.6,1.33-1.33
		S200.22,170.85,199.49,170.85z"/>
	<path class="st0" d="M200.91,163.07c-0.79,0-1.43,0.64-1.43,1.43c0,0.79,0.64,1.43,1.43,1.43c0.79,0,1.43-0.64,1.43-1.43
		C202.34,163.71,201.7,163.07,200.91,163.07z"/>
	<path class="st0" d="M164.49,177.81c-1.7,0-3.07,1.38-3.07,3.07s1.38,3.07,3.07,3.07s3.07-1.38,3.07-3.07
		S166.18,177.81,164.49,177.81z"/>
	<circle class="st0" cx="178.41" cy="181.89" r="1"/>
	
		<ellipse transform="matrix(0.9871 -0.1602 0.1602 0.9871 -16.5705 23.1315)" class="st0" cx="135.19" cy="114.35" rx="12.74" ry="12.74"/>
	
		<ellipse transform="matrix(0.7071 -0.7071 0.7071 0.7071 -60.3988 131.1219)" class="st0" cx="128.08" cy="138.47" rx="7.11" ry="7.11"/>
	<circle class="st0" cx="141.49" cy="132.62" r="1.26"/>
	<path class="st0" d="M117.19,123.38c-0.61,0-1.11,0.5-1.11,1.11s0.5,1.11,1.11,1.11c0.61,0,1.11-0.5,1.11-1.11
		S117.8,123.38,117.19,123.38z"/>
	<circle class="st0" cx="119.34" cy="120.28" r="1.04"/>
	<path class="st0" d="M117.19,108.01c0-0.92-0.75-1.67-1.67-1.67s-1.67,0.75-1.67,1.67c0,0.92,0.75,1.67,1.67,1.67
		S117.19,108.93,117.19,108.01z"/>
</g>
</svg>
