<?xml version="1.0" encoding="utf-8"?>
<!-- Generator: Adobe Illustrator 25.2.3, SVG Export Plug-In . SVG Version: 6.00 Build 0)  -->
<svg version="1.1" id="Ebene_1" xmlns="http://www.w3.org/2000/svg" xmlns:xlink="http://www.w3.org/1999/xlink" x="0px" y="0px"
	 viewBox="0 0 861.8 340.2" style="enable-background:new 0 0 861.8 340.2;" xml:space="preserve">
<path d="M861.8,180.4c-1.2,0-2.3,0.3-3.1,0.7c-1.4,0.7-2.3,1.7-3.3,2.7c-1.5,1.6-2.9,3.1-5.8,3.1c-2.9,0-4.3-1.5-5.8-3.1
	c-1-1-1.9-2.1-3.3-2.7c-0.9-0.4-1.9-0.7-3.2-0.7s-2.3,0.3-3.2,0.7c-1.4,0.7-2.3,1.7-3.3,2.7c-1.5,1.6-2.9,3.1-5.8,3.1
	c-2.9,0-4.3-1.5-5.8-3.1c-1-1-1.9-2.1-3.3-2.7c-0.9-0.4-1.9-0.7-3.2-0.7s-2.3,0.3-3.2,0.7c-1.4,0.7-2.3,1.7-3.3,2.7
	c-1.5,1.6-2.9,3.1-5.8,3.1s-4.3-1.5-5.8-3.1c-1-1-1.9-2.1-3.3-2.7c-0.9-0.4-1.9-0.7-3.2-0.7v0.7h0v-0.7c-1.3,0-2.3,0.3-3.2,0.7
	c-1.4,0.7-2.3,1.7-3.3,2.7c-1.5,1.6-2.9,3.1-5.8,3.1s-4.3-1.5-5.8-3.1c-1-1-1.9-2.1-3.3-2.7c-0.9-0.4-1.9-0.7-3.2-0.7
	s-2.3,0.3-3.2,0.7c-1.4,0.7-2.3,1.7-3.3,2.7c-1.5,1.6-2.9,3.1-5.8,3.1c-2.9,0-4.3-1.5-5.8-3.1c-1-1-1.9-2.1-3.3-2.7
	c-0.9-0.4-1.9-0.7-3.2-0.7c-1.3,0-2.3,0.3-3.2,0.7c-1.4,0.7-2.3,1.7-3.3,2.7c-1.5,1.6-2.9,3.1-5.8,3.1s-4.3-1.5-5.8-3.1
	c-1-1-1.9-2.1-3.3-2.7c-0.9-0.4-1.9-0.7-3.2-0.7c-1.3,0-2.3,0.3-3.2,0.7c-1.4,0.7-2.3,1.7-3.3,2.7c-1.5,1.6-2.9,3.1-5.8,3.1
	s-4.3-1.5-5.8-3.1c-1-1-1.9-2.1-3.3-2.7c-0.9-0.4-1.9-0.7-3.2-0.7s-2.3,0.3-3.2,0.7c-1.4,0.7-2.3,1.7-3.3,2.7
	c-1.5,1.6-2.9,3.1-5.8,3.1s-4.3-1.5-5.8-3.1c-1-1-1.9-2.1-3.3-2.7c-0.9-0.4-1.9-0.7-3.2-0.7c-1.3,0-2.3,0.3-3.2,0.7
	c-1.4,0.7-2.3,1.7-3.3,2.7c-1.5,1.6-2.9,3.1-5.8,3.1c-2.9,0-4.3-1.5-5.8-3.1c-1-1-1.9-2.1-3.3-2.7c-0.9-0.4-1.9-0.7-3.2-0.7
	c-1.3,0-2.3,0.3-3.2,0.7c-1.4,0.7-2.3,1.7-3.3,2.7c-1.5,1.6-2.9,3.1-5.8,3.1s-4.3-1.5-5.8-3.1c-1-1-1.9-2.1-3.3-2.7
	c-0.9-0.4-1.9-0.7-3.2-0.7c-1.3,0-2.3,0.3-3.2,0.7c-1.4,0.7-2.3,1.7-3.3,2.7c-1.5,1.6-2.9,3.1-5.8,3.1s-4.3-1.5-5.8-3.1
	c-1-1-1.9-2.1-3.3-2.7c-0.9-0.4-1.9-0.7-3.2-0.7c-1.3,0-2.3,0.3-3.2,0.7c-1.4,0.7-2.3,1.7-3.3,2.7c-1.5,1.6-2.9,3.1-5.8,3.1
	s-4.3-1.5-5.8-3.1c-1-1-1.9-2.1-3.3-2.7c-0.9-0.4-1.9-0.7-3.2-0.7c-1.3,0-2.3,0.3-3.2,0.7c-1.4,0.7-2.3,1.7-3.3,2.7
	c-1.5,1.6-2.9,3.1-5.8,3.1s-4.3-1.5-5.8-3.1c-1-1-1.9-2.1-3.3-2.7c-0.9-0.4-1.9-0.7-3.2-0.7c-1.3,0-2.3,0.3-3.2,0.7
	c-1.4,0.7-2.3,1.7-3.3,2.7c-1.5,1.6-2.9,3.1-5.8,3.1s-4.3-1.5-5.8-3.1c-1-1-1.9-2.1-3.3-2.7c-0.9-0.4-1.9-0.7-3.2-0.7
	c-1.3,0-2.3,0.3-3.2,0.7c-1.4,0.7-2.3,1.7-3.3,2.7c-1.5,1.6-2.9,3.1-5.8,3.1c-2.9,0-4.3-1.5-5.8-3.1c-1-1-1.9-2.1-3.3-2.7
	c-0.9-0.4-1.9-0.7-3.2-0.7c-1.3,0-2.3,0.3-3.2,0.7c-1.4,0.7-2.3,1.7-3.3,2.7c-1.5,1.6-2.9,3.1-5.8,3.1s-4.3-1.5-5.8-3.1
	c-1-1-1.9-2.1-3.3-2.7c-0.9-0.4-1.9-0.7-3.2-0.7c-1.3,0-2.3,0.3-3.2,0.7c-1.4,0.7-2.3,1.7-3.3,2.7c-1.5,1.6-2.9,3.1-5.8,3.1
	c-2.9,0-4.3-1.5-5.8-3.1c-1-1-1.9-2.1-3.3-2.7c-0.9-0.4-1.9-0.7-3.2-0.7s-2.3,0.3-3.2,0.7c-1.4,0.7-2.3,1.7-3.3,2.7
	c-1.5,1.6-2.9,3.1-5.8,3.1c-2.9,0-4.3-1.5-5.8-3.1c-1-1-1.9-2.1-3.3-2.7c-0.9-0.4-1.9-0.7-3.2-0.7s-2.3,0.3-3.2,0.7
	c-1.4,0.7-2.3,1.7-3.3,2.7c-1.5,1.6-2.9,3.1-5.8,3.1s-4.3-1.5-5.8-3.1c-1-1-1.9-2.1-3.3-2.7c-0.9-0.4-1.9-0.7-3.2-0.7v0.7h0v-0.7
	c-1.3,0-2.3,0.3-3.2,0.7c-1.4,0.7-2.3,1.7-3.3,2.7c-1.5,1.6-2.9,3.1-5.8,3.1s-4.3-1.5-5.8-3.1c-1-1-1.9-2.1-3.3-2.7
	c-0.9-0.4-1.9-0.7-3.2-0.7s-2.3,0.3-3.2,0.7c-1.4,0.7-2.3,1.7-3.3,2.7c-1.5,1.6-2.9,3.1-5.8,3.1c-2.9,0-4.3-1.5-5.8-3.1
	c-1-1-1.9-2.1-3.3-2.7c-0.9-0.4-1.9-0.7-3.2-0.7c-1.3,0-2.3,0.3-3.2,0.7c-1.4,0.7-2.3,1.7-3.3,2.7c-1.5,1.6-2.9,3.1-5.8,3.1
	s-4.3-1.5-5.8-3.1c-1-1-1.9-2.1-3.3-2.7c-0.9-0.4-1.9-0.7-3.2-0.7c-1.3,0-2.3,0.3-3.2,0.7c-1.4,0.7-2.3,1.7-3.3,2.7
	c-1.5,1.6-2.9,3.1-5.8,3.1s-4.3-1.5-5.8-3.1c-1-1-1.9-2.1-3.3-2.7c-0.9-0.4-1.9-0.7-3.2-0.7s-2.3,0.3-3.2,0.7
	c-1.4,0.7-2.3,1.7-3.3,2.7c-1.5,1.6-2.9,3.1-5.8,3.1s-4.3-1.5-5.8-3.1c-1-1-1.9-2.1-3.3-2.7c-0.9-0.4-1.9-0.7-3.2-0.7
	c-1.3,0-2.3,0.3-3.2,0.7c-1.4,0.7-2.3,1.7-3.3,2.7c-1.5,1.6-2.9,3.1-5.8,3.1c-2.9,0-4.3-1.5-5.8-3.1c-1-1-1.9-2.1-3.3-2.7
	c-0.9-0.4-1.9-0.7-3.2-0.7c-1.3,0-2.3,0.3-3.2,0.7c-1.4,0.7-2.3,1.7-3.3,2.7c-1.5,1.6-2.9,3.1-5.8,3.1s-4.3-1.5-5.8-3.1
	c-1-1-1.9-2.1-3.3-2.7c-0.9-0.4-1.9-0.7-3.2-0.7c-1.3,0-2.3,0.3-3.2,0.7c-1.4,0.7-2.3,1.7-3.3,2.7c-1.5,1.6-2.9,3.1-5.8,3.1
	s-4.3-1.5-5.8-3.1c-1-1-1.9-2.1-3.3-2.7c-0.9-0.4-1.9-0.7-3.2-0.7c-1.3,0-2.3,0.3-3.2,0.7c-1.4,0.7-2.3,1.7-3.3,2.7
	c-1.5,1.6-2.9,3.1-5.8,3.1s-4.3-1.5-5.8-3.1c-1-1-1.9-2.1-3.3-2.7c-0.9-0.4-1.9-0.7-3.2-0.7c-1.3,0-2.3,0.3-3.2,0.7
	c-1.4,0.7-2.3,1.7-3.3,2.7c-1.5,1.6-2.9,3.1-5.8,3.1s-4.3-1.5-5.8-3.1c-1-1-1.9-2.1-3.3-2.7c-0.9-0.4-1.9-0.7-3.2-0.7
	c-1.3,0-2.3,0.3-3.2,0.7c-1.4,0.7-2.3,1.7-3.3,2.7c-1.5,1.6-2.9,3.1-5.8,3.1s-4.3-1.5-5.8-3.1c-1-1-1.9-2.1-3.3-2.7
	c-0.9-0.4-1.9-0.7-3.2-0.7c-1.3,0-2.3,0.3-3.2,0.7c-1.4,0.7-2.3,1.7-3.3,2.7c-1.5,1.6-2.9,3.1-5.8,3.1c-2.9,0-4.3-1.5-5.8-3.1
	c-1-1-1.9-2.1-3.3-2.7c-0.9-0.4-1.9-0.7-3.2-0.7c-1.3,0-2.3,0.3-3.2,0.7c-1.4,0.7-2.3,1.7-3.3,2.7c-1.5,1.6-2.9,3.1-5.8,3.1
	s-4.3-1.5-5.8-3.1c-1-1-1.9-2.1-3.3-2.7c-0.9-0.4-1.9-0.7-3.2-0.7c-1.3,0-2.3,0.3-3.2,0.7c-1.4,0.7-2.3,1.7-3.3,2.7
	c-1.5,1.6-2.9,3.1-5.8,3.1c-2.9,0-4.3-1.5-5.8-3.1c-1-1-1.9-2.1-3.3-2.7c-0.9-0.4-1.9-0.7-3.2-0.7s-2.3,0.3-3.2,0.7
	c-1.4,0.7-2.3,1.7-3.3,2.7c-1.5,1.6-2.9,3.1-5.8,3.1c-2.9,0-4.3-1.5-5.8-3.1c-1-1-1.9-2.1-3.3-2.7c-0.9-0.4-1.9-0.7-3.2-0.7
	s-2.3,0.3-3.2,0.7c-1.4,0.7-2.3,1.7-3.3,2.7c-1.5,1.6-2.9,3.1-5.8,3.1s-4.3-1.5-5.8-3.1c-1-1-1.9-2.1-3.3-2.7
	c-0.9-0.4-1.9-0.7-3.2-0.7v0.7v0.2v158.9h394h394h73.8V180.4z"/>
</svg>
