<?xml version="1.0" encoding="utf-8"?>
<!-- Generator: Adobe Illustrator 25.2.3, SVG Export Plug-In . SVG Version: 6.00 Build 0)  -->
<svg version="1.1" id="Ebene_2_1_" xmlns="http://www.w3.org/2000/svg" xmlns:xlink="http://www.w3.org/1999/xlink" x="0px" y="0px"
	 viewBox="0 0 340.16 340.16" style="enable-background:new 0 0 340.16 340.16;" xml:space="preserve">
<style type="text/css">
	.st0{fill:#424242;stroke:#000000;stroke-width:1.5;stroke-miterlimit:10;}
</style>
<g>
	<path class="st0" d="M210.49,100.74h-69.61c-8.84,0-16.01,7.17-16.01,16.01v164.16c0,8.84,7.17,16.01,16.01,16.01h69.61
		c8.84,0,16.01-7.17,16.01-16.01V116.76C226.5,107.91,219.34,100.74,210.49,100.74z"/>
	<path class="st0" d="M137.95,97.03h75.47c3.24,0,5.87-2.63,5.87-5.87c0-3.24-2.63-5.87-5.87-5.87h-28.21
		c0-0.07,0.02-0.14,0.02-0.21v-6.26h5.18c4.32,0,7.85-3.53,7.85-7.85V46.95c0-4.32-3.53-7.85-7.85-7.85h-26.79
		c-4.32,0-7.85,3.53-7.85,7.85v4.35c0.8-0.24,1.64-0.4,2.51-0.4c4.96,0,8.98,4.02,8.98,8.98s-4.02,8.98-8.98,8.98
		c-0.88,0-1.71-0.17-2.51-0.4v2.51c0,4.32,3.53,7.85,7.85,7.85h5.18v6.26c0,0.07,0.02,0.14,0.02,0.21h-30.88
		c-3.24,0-5.87,2.63-5.87,5.87C132.08,94.4,134.71,97.03,137.95,97.03z"/>
	<circle class="st0" cx="158.29" cy="59.88" r="6.06"/>
</g>
</svg>
